<?xml version="1.0" encoding="UTF-8"?>
<svg width="589.83" height="227.17" version="1.2" viewBox="0 0 442.37 170.38" 
   xmlns="http://www.w3.org/2000/svg" 
   xmlns:cc="http://creativecommons.org/ns#" 
   xmlns:dc="http://purl.org/dc/elements/1.1/" 
   xmlns:rdf="http://www.w3.org/1999/02/22-rdf-syntax-ns#">
   <metadata>
      <rdf:RDF>
         <cc:Work rdf:about="">
            <dc:format>image/svg+xml</dc:format>
            <dc:type rdf:resource="http://purl.org/dc/dcmitype/StillImage"/>
            <dc:title/>
         </cc:Work>
      </rdf:RDF>
   </metadata>
   <defs>
      <clipPath id="l">
         <path d="m239.03 226.6-42.13 24.317c-1.578 0.91-2.546 2.59-2.546 4.406v48.668c0 1.817 0.968 3.496 2.546 4.406l42.133 24.336c1.575 0.907 3.517 0.907 5.09 0l42.126-24.336c1.57-0.91 2.54-2.59 2.54-4.406v-48.668c0-1.816-0.97-3.496-2.55-4.406l-42.12-24.317c-0.79-0.453-1.67-0.68-2.55-0.68s-1.76 0.227-2.55 0.68"/>
      </clipPath>
      <linearGradient id="k" x1="-.348" x2="1.251" gradientTransform="matrix(-38.065 77.652 -77.652 -38.065 258.72 244.63)" gradientUnits="userSpaceOnUse">
         <stop stop-color="#3E863D" offset=".3"/>
         <stop stop-color="#55934F" offset=".5"/>
         <stop stop-color="#5AAD45" offset=".8"/>
      </linearGradient>
      <clipPath id="j">
         <path d="m195.4 307.09c0.403 0.523 0.907 0.976 1.5 1.316l36.14 20.875 6.02 3.46c0.9 0.52 1.926 0.74 2.934 0.665 0.336-0.027 0.672-0.09 1-0.183l44.434-81.36c-0.34-0.37-0.738-0.68-1.184-0.94l-27.586-15.93-14.582-8.39c-0.414-0.24-0.863-0.41-1.32-0.53z"/>
      </clipPath>
      <linearGradient id="i" x1="-.456" x2=".582" gradientTransform="matrix(106.81 -78.917 78.917 106.81 235.19 285.39)" gradientUnits="userSpaceOnUse">
         <stop stop-color="#3E863D" offset=".57"/>
         <stop stop-color="#619857" offset=".72"/>
         <stop stop-color="#76AC64" offset="1"/>
      </linearGradient>
      <clipPath id="h">
         <path d="m241.07 225.95c-0.707 0.07-1.398 0.29-2.035 0.652l-42.01 24.247 45.3 82.51c0.63-0.09 1.25-0.3 1.81-0.624l42.13-24.336c1.3-0.754 2.19-2.03 2.46-3.476l-46.18-78.89c-0.34-0.067-0.68-0.102-1.03-0.102-0.14 0-0.28 7e-3 -0.42 0.02"/>
      </clipPath>
      <linearGradient id="g" x1=".043" x2=".984" gradientTransform="matrix(97.417 0 0 97.417 192.86 279.65)" gradientUnits="userSpaceOnUse">
         <stop stop-color="#6BBF47" offset=".16"/>
         <stop stop-color="#79B461" offset=".38"/>
         <stop stop-color="#75AC64" offset=".47"/>
         <stop stop-color="#659E5A" offset=".7"/>
         <stop stop-color="#3E863D" offset=".9"/>
      </linearGradient>
   </defs>
   <path d="m94.935 90.55c0-1.84-0.97-3.53-2.558-4.445l-42.356-24.37c-0.715-0.42-1.516-0.64-2.328-0.67h-0.438c-0.812 0.03-1.613 0.25-2.34 0.67l-42.354 24.37c-1.578 0.92-2.562 2.61-2.562 4.45l0.093 65.64c0 0.91 0.47 1.76 1.27 2.21 0.78 0.48 1.76 0.48 2.54 0l25.18-14.42c1.59-0.946 2.56-2.618 2.56-4.44v-30.665c0-1.83 0.97-3.52 2.555-4.43l10.72-6.174c0.796-0.46 1.67-0.688 2.56-0.688 0.876 0 1.77 0.226 2.544 0.687l10.715 6.172c1.586 0.91 2.56 2.6 2.56 4.43v30.663c0 1.82 0.983 3.5 2.565 4.44l25.164 14.41c0.79 0.47 1.773 0.47 2.56 0 0.776-0.45 1.268-1.3 1.268-2.21zm199.87 34.176c0 0.457-0.243 0.88-0.64 1.106l-14.548 8.386c-0.395 0.227-0.883 0.227-1.277 0l-14.55-8.386c-0.4-0.227-0.64-0.65-0.64-1.106v-16.796c0-0.458 0.24-0.88 0.63-1.11l14.54-8.4c0.4-0.23 0.89-0.23 1.29 0l14.55 8.4c0.4 0.23 0.64 0.652 0.64 1.11zm3.93-124.4c-0.794-0.442-1.76-0.43-2.544 0.027-0.78 0.46-1.262 1.3-1.262 2.21v65c0 0.64-0.34 1.23-0.894 1.55-0.55 0.32-1.235 0.32-1.79 0l-10.61-6.111c-1.58-0.914-3.526-0.914-5.112 0l-42.37 24.453c-1.583 0.91-2.56 2.6-2.56 4.42v48.92c0 1.83 0.977 3.51 2.56 4.43l42.37 24.47c1.582 0.91 3.53 0.91 5.117 0l42.37-24.48c1.58-0.92 2.56-2.6 2.56-4.43v-121.92c0-1.856-1.01-3.563-2.63-4.47zm141.09 107.16c1.574-0.914 2.543-2.602 2.543-4.422v-11.856c0-1.824-0.97-3.507-2.547-4.425l-42.1-24.44c-1.59-0.92-3.54-0.92-5.13 0l-42.36 24.45c-1.59 0.92-2.56 2.6-2.56 4.43v48.9c0 1.84 0.99 3.54 2.58 4.45l42.09 23.99c1.55 0.89 3.45 0.9 5.02 0.03l25.46-14.15c0.8-0.45 1.31-1.3 1.31-2.22s-0.49-1.78-1.29-2.23l-42.62-24.46c-0.8-0.45-1.29-1.3-1.29-2.21v-15.34c0-0.916 0.48-1.76 1.28-2.216l13.26-7.65c0.79-0.46 1.76-0.46 2.55 0l13.27 7.65c0.79 0.45 1.28 1.3 1.28 2.21v12.06c0 0.91 0.49 1.76 1.28 2.22 0.79 0.45 1.77 0.45 2.56-0.01z" fill="#333" fill-rule="evenodd"/>
   <path d="m394.54 105.2c0.3-0.177 0.676-0.177 0.98 0l8.13 4.69c0.304 0.176 0.49 0.5 0.49 0.85v9.39c0 0.35-0.186 0.674-0.49 0.85l-8.13 4.69c-0.304 0.177-0.68 0.177-0.98 0l-8.125-4.69c-0.31-0.176-0.5-0.5-0.5-0.85v-9.39c0-0.35 0.18-0.674 0.49-0.85z" fill="#689f63" fill-rule="evenodd"/>
   <g transform="translate(-78.307 -164.02)" clip-path="url(#l)">
      <path d="m331.36 246.79-118.72-58.19-60.87 124.17 118.71 58.193z" fill="url(#k)"/>
   </g>
   <g transform="translate(-78.307 -164.02)" clip-path="url(#j)">
      <path d="m144.07 264 83.825 113.45 110.86-81.906-83.83-113.45z" fill="url(#i)"/>
   </g>
   <g transform="translate(-78.307 -164.02)" clip-path="url(#h)">
      <path d="m197.02 225.93v107.43h91.683v-107.43z" fill="url(#g)"/>
   </g>
</svg>
